<?xml version="1.0" standalone="no"?>
<!DOCTYPE svg PUBLIC "-//W3C//DTD SVG 20010904//EN"
 "http://www.w3.org/TR/2001/REC-SVG-20010904/DTD/svg10.dtd">
<svg version="1.0" xmlns="http://www.w3.org/2000/svg"
 width="1024.000000pt" height="1024.000000pt" viewBox="0 0 1024.000000 1024.000000"
 preserveAspectRatio="xMidYMid meet">
<metadata>
Created by potrace 1.14, written by Peter Selinger 2001-2017
</metadata>
<g transform="translate(0.000000,1024.000000) scale(0.100000,-0.100000)"
fill="#000000" stroke="none">
<path d="M6425 8990 c-54 -8 -100 -29 -115 -54 -9 -14 -14 -70 -16 -171 -7
-345 -14 -617 -19 -725 -2 -63 -7 -187 -10 -275 -5 -145 -8 -269 -19 -747 -2
-86 -6 -160 -9 -165 -2 -4 -8 -154 -12 -333 -4 -179 -8 -347 -10 -375 -2 -27
-4 -108 -6 -178 -4 -148 -9 -158 -65 -127 -21 11 -45 20 -53 20 -8 0 -22 7
-32 16 -9 8 -23 17 -31 18 -7 1 -56 23 -109 48 -120 57 -147 63 -193 44 -20
-8 -36 -13 -36 -10 0 2 -14 -3 -31 -12 -17 -8 -38 -17 -47 -19 -19 -4 -151
-52 -232 -85 -30 -12 -64 -24 -75 -26 -11 -2 -29 -8 -40 -13 -40 -19 -216 -81
-230 -81 -8 0 -15 -4 -15 -10 0 -5 -3 -9 -7 -8 -5 1 -21 -4 -36 -10 -16 -7
-32 -12 -37 -12 -4 0 -61 -20 -126 -44 -66 -25 -211 -78 -324 -120 -113 -41
-243 -89 -290 -106 -47 -17 -89 -32 -95 -34 -5 -2 -17 -6 -25 -9 -18 -7 -141
-51 -190 -68 -19 -7 -44 -15 -55 -20 -11 -4 -47 -17 -80 -29 -33 -11 -69 -25
-80 -30 -11 -5 -42 -16 -69 -25 -27 -9 -54 -19 -60 -23 -6 -3 -15 -7 -21 -8
-14 -3 -245 -86 -330 -119 -38 -14 -90 -33 -115 -41 -25 -8 -54 -19 -65 -24
-30 -14 -105 -40 -150 -52 -22 -6 -42 -14 -45 -18 -3 -3 -48 -21 -100 -39 -52
-18 -104 -36 -115 -41 -11 -5 -67 -25 -124 -44 -57 -19 -107 -40 -111 -46 -4
-6 -5 -50 -2 -98 7 -123 8 -404 2 -422 -11 -34 -96 -91 -139 -95 -15 -1 -32
-4 -37 -6 -5 -3 -34 -6 -65 -8 -43 -1 -58 2 -62 13 -4 9 -5 824 -3 1812 3
1755 3 1797 22 1807 10 6 28 13 39 14 11 2 27 6 35 10 8 3 21 7 29 9 8 1 28
17 44 34 23 24 27 37 22 57 -20 80 -167 122 -265 77 -59 -27 -79 -51 -73 -87
8 -52 9 -248 0 -302 -4 -27 -9 -140 -12 -250 -2 -110 -7 -267 -10 -350 -3 -82
-7 -217 -10 -300 -3 -82 -7 -197 -10 -255 -8 -159 -14 -335 -20 -535 -5 -176
-11 -329 -20 -530 -3 -55 -7 -161 -10 -235 -2 -74 -7 -207 -10 -295 -3 -88 -8
-169 -10 -180 -2 -11 -4 -26 -4 -32 -1 -7 -8 -13 -16 -13 -8 0 -23 -4 -33 -10
-9 -5 -46 -19 -82 -30 -36 -12 -79 -28 -97 -36 -17 -8 -37 -14 -45 -14 -8 0
-18 -3 -21 -7 -6 -6 -178 -67 -218 -77 -8 -2 -32 -11 -53 -20 -21 -9 -46 -16
-55 -16 -9 0 -21 -8 -26 -17 -7 -12 -10 -181 -10 -463 l0 -445 60 -92 c33 -51
69 -107 80 -125 20 -33 94 -90 107 -82 4 2 9 0 13 -6 3 -5 14 -10 24 -10 9 0
23 -6 29 -13 7 -6 16 -12 20 -12 4 -1 17 -6 30 -13 12 -7 26 -11 31 -8 5 3 16
-3 26 -14 10 -11 22 -20 27 -20 5 0 37 -13 71 -29 136 -63 162 -75 167 -76 3
0 48 -21 100 -46 177 -86 229 -109 239 -109 6 0 11 -4 11 -10 0 -5 6 -10 13
-10 7 0 35 -11 63 -24 27 -13 67 -31 89 -42 22 -10 43 -23 47 -28 4 -6 8 -7 8
-3 0 5 12 1 28 -7 46 -26 167 -80 175 -78 4 1 7 -2 7 -8 0 -5 5 -10 11 -10 6
0 61 -24 122 -54 127 -62 169 -80 180 -78 4 1 7 -2 7 -7 0 -5 10 -13 23 -17
28 -9 119 -50 224 -102 45 -22 83 -38 86 -36 2 3 10 -2 17 -11 7 -8 18 -15 25
-15 7 0 39 -13 70 -30 31 -16 63 -30 71 -30 8 0 14 -4 14 -10 0 -5 9 -10 20
-10 11 0 20 -4 20 -10 0 -5 6 -10 13 -10 19 0 67 -24 67 -33 0 -5 3 -6 8 -3 4
2 30 -6 57 -20 28 -13 56 -24 63 -24 6 0 12 -3 12 -8 0 -4 15 -13 33 -21 17
-8 57 -25 87 -40 30 -14 58 -24 63 -23 4 1 7 -3 7 -9 0 -5 5 -7 10 -4 6 3 10
1 10 -4 0 -6 7 -11 15 -11 18 0 57 -20 67 -35 4 -5 8 -7 8 -3 0 4 53 -19 118
-51 64 -32 135 -66 157 -75 22 -9 63 -28 90 -41 60 -29 73 -31 105 -21 53 17
306 107 325 116 29 13 69 24 78 22 4 -1 7 2 7 6 0 4 21 14 48 21 26 8 54 18
62 22 19 9 83 34 90 34 3 0 11 4 17 8 7 5 21 10 30 12 10 1 54 17 98 35 44 17
87 32 97 33 10 1 18 4 18 7 0 3 21 12 48 19 26 8 54 18 62 22 14 7 168 62 180
65 3 0 19 6 35 13 17 7 35 14 40 15 6 1 15 4 20 7 6 4 28 12 50 19 37 11 290
103 325 117 8 3 24 8 34 10 11 2 24 7 30 12 6 5 26 12 44 16 17 3 32 11 32 17
0 6 3 9 6 5 4 -3 22 0 40 8 19 8 35 14 37 14 4 0 42 13 62 22 11 4 49 18 85
30 36 11 69 24 75 27 5 4 16 7 24 8 7 2 36 11 65 22 97 38 196 74 209 76 6 1
18 5 24 9 14 9 119 47 145 52 10 2 32 10 50 19 18 8 74 29 123 46 50 17 99 35
110 40 11 4 49 18 85 31 36 12 71 27 78 32 6 5 12 7 12 3 0 -3 17 1 38 10 20
9 42 17 47 18 6 2 23 8 38 14 16 7 32 12 36 12 4 0 36 12 72 26 35 14 69 27
74 28 6 2 18 6 27 10 9 4 22 9 30 10 7 2 24 8 38 13 27 11 464 170 645 234 61
21 117 42 125 47 8 4 42 17 75 27 33 11 62 22 65 25 3 3 14 7 25 8 34 6 96 42
103 60 3 9 19 36 34 58 15 23 28 46 28 52 0 6 4 12 8 14 4 1 28 37 52 78 l45
76 -2 439 c-1 242 -2 450 -2 462 -1 13 -9 24 -23 28 -30 8 -46 15 -151 64 -48
23 -89 41 -92 41 -2 0 -34 14 -70 30 -36 17 -70 30 -75 30 -6 0 -10 5 -10 10
0 6 -7 10 -15 10 -8 0 -23 4 -33 9 -9 5 -33 16 -52 24 -19 9 -60 27 -90 40
-145 66 -171 77 -178 78 -4 0 -16 6 -27 12 -11 6 -23 11 -26 12 -3 0 -21 8
-40 17 -19 9 -61 29 -94 43 -33 15 -78 35 -101 46 -22 10 -46 19 -52 19 -7 0
-12 5 -12 10 0 6 -7 10 -15 10 -9 0 -42 14 -75 30 -33 17 -62 30 -65 30 -3 -1
-44 17 -91 39 -47 23 -92 41 -99 41 -7 0 -15 3 -17 8 -4 9 -140 68 -150 65 -3
-1 -12 4 -18 12 -7 8 -19 15 -27 15 -9 0 -32 9 -52 19 -20 11 -56 28 -81 39
-25 11 -74 33 -110 49 -36 17 -95 43 -132 59 -38 16 -68 32 -68 36 0 5 -7 8
-17 8 -9 0 -36 12 -60 26 -25 14 -51 23 -59 20 -8 -3 -14 -1 -14 5 0 6 -5 7
-11 4 -6 -4 -8 -13 -5 -21 3 -8 1 -14 -5 -14 -6 0 -7 -5 -3 -12 4 -7 10 -40
12 -74 l3 -61 -38 -18 c-21 -11 -47 -20 -59 -20 -11 -1 -26 -5 -32 -9 -7 -4
-33 -9 -59 -11 -27 -3 -67 -7 -91 -9 -32 -3 -44 0 -51 13 -10 20 -8 3397 2
3407 8 9 28 14 67 19 14 1 26 4 28 5 1 1 5 3 10 4 4 1 24 12 45 24 68 43 60
103 -20 148 -24 13 -43 22 -43 20 0 -1 -19 0 -42 3 -24 4 -61 4 -83 1z"/>
</g>
</svg>
